<?xml version="1.0" encoding="UTF-8"?>
<svg xmlns="http://www.w3.org/2000/svg" version="1.1" viewBox="0 0 65.2 65.2">
  <defs>
    <style>
      .cls-1 {
        fill: #009c1a;
      }

      .cls-2 {
        fill: #2151a3;
      }
    </style>
  </defs>
  <!-- Generator: Adobe Illustrator 28.7.0, SVG Export Plug-In . SVG Version: 1.2.0 Build 136)  -->
  <g>
    <g id="Calque_2">
      <path class="cls-2" d="M65.2,32.6c0,18-14.6,32.6-32.6,32.6S0,50.6,0,32.6,14.6,0,32.6,0s32.6,14.6,32.6,32.6Z"/>
      <path class="cls-1" d="M36.6,2.8c0,0-.2,0-.2,0,0-.2-.4-.2-.9,0-.4,0-.9.3-1.7.2-.8-.2-2-.5-2.6-.5-.6,0-1.6-.1-2.2.5-.6.6-.5,1.2-.6,1.6-.2.4-.1.9-.7,1.3-.3.2-.7.5-1,.8.3-.8.6-1.2.4-1.7.1-.1.2-.3.3-.4.1-.2,0-.4,0-.4,0,0-.5,0-.6,0,0,0-.1,0-.2.2h0s-.1-.4-.1-.8c0,0,.1,0,0-.4,0-.4-4.5-.2-5.6,0-.2,0-.7,0-1.3.2-2,.4-5.9,1.7-10.6,7.1-6.2,6.9-5.7,11.8-5.7,11.8,0,.8.1,1.5.3,2,.2.4.4.7.7.9,0,.4-.4,1.3-.4,1.7s0,.5.2.8c0,.9,1.3,2.1,2.4,2.7.4.2.9.4,1.2.5,0,.7,1.3,1.3,1.2,1.4-1.3,1.8-1.8,4.3-1.7,5.7,0,1.7,3.7,7.1,3.8,8.2.1,1,1.1,5.4,1.1,5.4.4,1.4,1.8,4.9,2.5,5.6.7.8,1.3,1.2,2,1.2-.2-.4-1.4-2-1.7-3.7s1.4-3.2,2.2-4.1c.6-.7,4.7-4.8,5.1-5.2,1.6-1.9,2.3-3.5,2.4-4.6.1-1-4.1-2.2-4.4-2.5s-.8-2.2-1.2-2.7c-.4-.5-1.7-.9-3-1.7-1.2-2.2-1.7-2.4-2.2-2.5-.5,0-.7,1-.9,1s-1.4-.8-1.2.5c-.6-.6-1.3-1-2.2-1.6,0,0-.3.3-.3.3,0-.6-.1-1.6-.6-2.2q-.3-.4,0,0c0-.1-.1-.2-.2-.3-.1-.2-1.5-.7-1.5-.7,0,0,.5-.5.7-.6,0,0,.3-.1.4-.1.2,0,.9-.1,1.4-.2h0c.2.7.5,1.2.9,1.4l1.5-2.2c.1-.9.2-1.8.4-2.5.2-.6.9-2.5,1.9-4.8,1.4-1.1,3.4-2.3,6-3.3,3.2-1.2,4.9-1.7,5.6-2.6.6-.7.7-1.6.6-3.3.2-.3.4-.6.6-1,.4-.6.8-1.2,1.1-1.7.4-.5.8-.9,1.1-1.1,0,.1,0,.2,0,.2,0,0,.2,0,.3,0-.1.1-.3.3-.4.4-.4.3-1.3,1-.7,1.6.6.6,2.8.4,6.1-1.8,2.8-2,2.4-3.7,1.8-3.9Z"/>
      <path class="cls-1" d="M63,19.8c-1.9-5.5-8.2-11.4-9.7-12.7h0c-.6-.6-1.5-1.3-2.8-1.9-.1,0-.3-.1-.4-.2h0c-2.2-.9-3.7,0-4.5.9-1.5-.8-3.1-.8-4.2-.6-1.1.2-2.2,1.9-2.2,3-1.4.3-1.8,1.1-1.7,1.8,0,.4,0,1,0,1.6.2.9.6,1.7,1.7,1.5,1.7-.4,2-.5,2.3-1.9,0-.5.1-.9.2-1.3,0-.7,0-1.3.2-1.4.2-.3.5-.3,1,0,1.5.8,0,2.7,0,3,0,.4-.8.9-2,1.5-.3.1-.8.5-1.3.9-.5-.4-1.2-.7-1.9-.7-1.1,0-1.9.3-2.4.9-.2.2-1,.8-1.1,1.1,0,.1.6,1.2.3,1.8-.2.5-1.4.4-1.4,1,.1,1.7,1.7,3.2,1.8,3.3-.3.1-.8.4-1,.6-1.7,1.4-4.1,4.2-4.9,7-.8,2.8.6,5.8,1.5,6.9.9,1,4.9,1.8,5.9,2.5.1,0,.2.2.3.2.6.6,1,1.3,1.2,1.8,0,0,0,.2,0,.2.1.3.3,1.3.6,2.3.2.9.3,1.7.3,2.1h0c0,.8-1.8,2.8-1.9,3.2-.1.3,0,.8.3,1.2,0,0,.1.2.2.2.3.3,1.4,4.3,1.5,4.6s.4.8,1.6.7c2.9-.2,5.1-3.7,5.6-5.2,1.2-.4,1.6-1.1,1.8-1.4.2-.3.1-4,.4-5.2s3.3-4.5,4.4-6.2.7-3.5.7-3.5l-2.1,1s-1.8-2.6-1.4-2.6c.1.6,1.7,1.8,1.7,1.8,0,0,.8-.5,2.1-1.2-.2-.4-.4-1-.3-1.4,0-.3,2-1.1,2-1.1,0,0,0,.4.1,1,0,.6,1.3,1.6,1.6,1.9.3.3,1.1,2.5,2,3.4-.1-2.3.4-5.1,1-7.1,1.1.3,3,4,3.2,5.2s-.2,3.2-.2,3.6.7.8.9.8c2.2-7.2.8-13.2-1.1-18.7h0ZM48.1,22c0,.4-.4,1-.8,1.7-.3.6,0,1.3-.4,1.5s-.9-.3-1.6-.6c-.8-.4-1.6-.8-2.1-.9-.9-.3-1,.1-1,.1,0,0-.5.5-1,.8-.3-.5-2.2-.7-2.8-1s-2.4-2.3-3.3-2.3c.6-.3,1.5-.7,1.6-1.1.2-.7.4-1.7,1.1-2.2.2.2.4.5.6.6,0,0,2,1.2,2.3,1.5s.8-.5.5-1c-.1-.2-.3-.4-.4-.5-.2-.2-1-.6-1.5-.9.7,0,1.6.2,2.2,1,1.1,1.4,2.1,2.5,2.1,2.5,0,0,.6.7,1.1.7s1.9-.7,2.8-1.1c.2.2.4.4.4.6,0,.2,0,.4,0,.6h0Z"/>
    </g>
  </g>
</svg>