<?xml version="1.0" encoding="UTF-8"?>
<svg xmlns="http://www.w3.org/2000/svg" version="1.1" viewBox="0 0 110 135">
  <defs>
    <style>
      .cls-1 {
        fill: #000;
      }
    </style>
  </defs>
  <!-- Generator: Adobe Illustrator 28.7.0, SVG Export Plug-In . SVG Version: 1.2.0 Build 136)  -->
  <g>
    <g id="Calque_1">
      <path class="cls-1" d="M94.1,71.8c1.2-5.4-.3-10.9-4.1-14.9.3-.7.5-1.4.7-2.1,1.4-6.1-.8-12.3-5.5-16.2.7-4-.2-8-2.4-11.5-2.4-3.7-6.1-6.3-10.5-7.2-1.1-.2-2.1-.3-3.2-.3-2.2-4.8-7.1-8-12.5-8s-13.4,5.8-13.8,13c-6.3.1-11.9,4.5-13.3,10.8-.6,2.6-.4,5.3.5,7.7-2.7,2-4.7,4.9-5.4,8.2-.7,3.2-.3,6.4,1.2,9.2-3,2.4-5.1,5.7-5.9,9.4-1.8,7.9,2.3,15.7,9.7,18.7,1.9,5.3,6.5,9.2,12.1,10.3,4,.8,8,.2,11.4-1.7v19.1h-18.6v4.9h45.1v-4.9h-21.6v-18.8c1.6,1,3.4,1.7,5.3,2.1,1.1.2,2.3.3,3.4.3,4.3,0,8.6-1.7,11.8-4.7,7.6-.3,14.1-5.7,15.8-13.1.7-3,.5-6-.5-8.9.2-.6.3-1.1.5-1.6h0ZM77.6,90.5h-.2c-.7,0-1.4.3-1.8.8-2.9,3.1-7.2,4.5-11.3,3.7-2.4-.5-4.6-1.8-6.3-3.6v-9.4l14.8-8.5-2.4-4.2-12.3,7.1v-24.9h-4.9v14.8l-9.2-5.7-2.6,4.2,11.8,7.4v19.5c-2.9,2.5-6.7,3.6-10.4,2.8-4.2-.9-7.6-4-8.8-8.1-.2-.8-.8-1.4-1.6-1.7-5.7-1.8-9-7.6-7.6-13.4.7-3.2,2.8-6,5.7-7.7.6-.4,1-1,1.2-1.7s0-1.4-.5-2c-1.6-2-2.2-4.7-1.6-7.3.6-2.7,2.4-4.9,4.9-6.1.6-.3,1.1-.8,1.3-1.5.2-.7.1-1.4-.3-2-1.1-1.9-1.5-4.2-1-6.3,1.1-4.8,5.9-7.8,10.7-6.8.8.2,1.6,0,2.2-.6.6-.6.8-1.4.7-2.2-.1-.6-.2-1.1-.2-1.6,0-4.9,4-8.8,8.9-8.8s7.4,2.6,8.5,6.3c.3,1.1,1.4,1.9,2.6,1.7,1.2-.1,2.4,0,3.6.2,3.1.6,5.7,2.4,7.4,5,1.7,2.6,2.2,5.7,1.5,8.7v.5c-.4,1,0,2.1.9,2.7,4,2.6,5.9,7.4,4.8,12-.2.9-.5,1.8-1,2.7-.5,1-.3,2.3.6,3,3.3,2.8,4.8,7.1,3.8,11.3-.1.5-.3,1.1-.6,1.8-.2.6-.2,1.3,0,1.8.9,2.2,1.1,4.6.6,6.9-1.2,5.4-6.1,9.3-11.7,9.3h0Z"/>
    </g>
  </g>
</svg>