<?xml version="1.0" encoding="UTF-8"?>
<svg xmlns="http://www.w3.org/2000/svg" viewBox="0 0 383.27 383.35">
  <g>
      <path d="M56.15,383.35c-4.54-1.21-9.18-2.12-13.59-3.67C16.91,370.66.02,346.79.01,319.71,0,248.48,0,177.24.02,106c.01-34.4,27.67-62.83,62.08-63.29,28.81-.38,57.62-.2,86.44-.09,12.69.05,22.24,9.63,21.98,21.56-.26,12.03-9.9,21.11-22.56,21.12-27.57.04-55.13,0-82.7.01-13.75,0-22.6,8.89-22.6,22.73,0,69.99,0,139.98,0,209.97,0,13.72,8.97,22.67,22.71,22.67,69.97.01,139.95.01,209.92,0,13.81,0,22.67-8.88,22.68-22.67.02-27.57-.01-55.14.01-82.71.01-11.79,7.11-20.21,18.57-22.19,11.7-2.01,23.71,7.54,23.99,19.47.29,12.59.13,25.2.13,37.8,0,16.59.17,33.19-.06,49.78-.44,31.95-22.85,57.53-54.46,62.52-.59.09-1.14.44-1.7.66H56.15Z"/>
      <path d="M383.27,153.49c-2.1,3.6-3.67,7.69-6.41,10.71-5.78,6.36-15.23,8.06-23.04,4.59-8.39-3.73-13.09-10.32-13.14-19.58-.14-23.7-.05-47.41-.05-71.12,0-1.36,0-2.73,0-4.99-1.51,1.43-2.54,2.36-3.52,3.34-57.16,57.16-114.33,114.31-171.44,171.53-6.46,6.47-13.84,9.28-22.72,6.68-14.93-4.38-20.16-22.6-10.02-34.4,1.06-1.23,2.24-2.35,3.38-3.49,56.71-56.73,113.42-113.46,170.15-170.17,1.06-1.06,2.27-1.95,3.42-2.92-.11-.34-.21-.68-.32-1.02-1.26,0-2.52,0-3.78,0-23.7,0-47.4.02-71.1-.01-11.71-.02-20.56-8.11-21.84-19.83-1.1-10.05,6.4-20.02,16.97-22.4C231.6,0,233.52.02,235.37.02,277.04,0,318.7,0,360.36,0c11.51,0,18.25,4.77,22.22,15.7.11.3.45.51.69.77v137.02Z"/>
  </g>
</svg>