<?xml version="1.0" encoding="UTF-8"?>
<svg xmlns="http://www.w3.org/2000/svg" version="1.1" viewBox="0 0 507.6 737.6">
  <defs>
    <style>
      .cls-1, .cls-2 {
        fill: #000;
      }

      .cls-3 {
        stroke-width: 10px;
      }

      .cls-3, .cls-4 {
        fill: none;
      }

      .cls-3, .cls-4, .cls-2 {
        stroke: #000;
        stroke-miterlimit: 10;
      }

      .cls-4 {
        stroke-width: 35px;
      }

      .cls-2 {
        stroke-width: 8px;
      }
    </style>
  </defs>
  <!-- Generator: Adobe Illustrator 28.7.0, SVG Export Plug-In . SVG Version: 1.2.0 Build 136)  -->
  <g>
    <g id="Calque_2">
      <g>
        <path class="cls-3" d="M257.6,210.5c-88.6,0-160.4,71.8-160.4,160.5H24.8V52.5c0-17,13.8-30.8,30.8-30.8h403.9c17,0,30.8,13.8,30.8,30.8v318.5h-72.3c0-88.6-71.8-160.5-160.5-160.5h0Z"/>
        <path class="cls-3" d="M459.5,720.2H55.6c-17,0-30.8-13.8-30.8-30.8v-318.5h72.3c0,88.6,71.8,160.5,160.4,160.5s160.5-71.8,160.5-160.5h72.3v318.5c0,17-13.8,30.8-30.8,30.8Z"/>
      </g>
      <path class="cls-2" d="M344.5,303.8v134.4c-.1.3-.2.6-.3,1-1.6,8.8-6.7,14.6-15,17.6-1.4.5-2.9.8-4.4,1.1h-134.4c-.2,0-.4-.2-.6-.3-11.7-2.1-19.1-10.9-19.1-22.8,0-42.6,0-85.2,0-127.8,0-1.9.1-3.8.5-5.6,2.4-10.6,11.2-17.4,22.2-17.4,35.1,0,70.2,0,105.3,0s15.7,0,23.6,0c9.6.1,17.7,6.1,20.8,15.1.5,1.5.8,3,1.2,4.6h0ZM243.2,395.2c.5-.6.7-1.2,1.2-1.6,14.8-14.9,29.6-29.7,44.5-44.5,1.1-1.1,2.4-2.3,3.8-3.1,6.3-3.5,13.1-1.9,17.8,3.9,7.5,9.2,15,18.4,22.5,27.7.3.4.7.8,1.2,1.3,0-.6,0-.9,0-1.2,0-23.6,0-47.2,0-70.8,0-7.6-5.2-12.6-12.9-12.6-42.5,0-84.9,0-127.4,0-1.3,0-2.7.1-4,.5-5.7,1.5-9,6.1-9,12.4v94.7c0,.4,0,.9,0,1.5.6-.5,1.1-.8,1.5-1.2,8.2-7,16.4-13.9,24.5-20.9,6.3-5.4,12.9-5.4,19.3-.2,5.5,4.5,11,9.1,16.9,14h0ZM257.6,447.7c21.3,0,42.5,0,63.8,0,7.7,0,12.8-5.1,12.8-12.8,0-12.8,0-25.6,0-38.4,0-.7-.3-1.5-.8-2.1-2.1-2.7-4.2-5.3-6.4-7.9-8.2-10.1-16.4-20.2-24.6-30.3-1-1.2-2.1-2.3-3.7-1.8-1,.3-2,1.1-2.7,1.8-16.2,16.1-32.3,32.3-48.5,48.5-2.9,2.9-5.2,3-8.3.4-6.5-5.4-13-10.8-19.5-16.1-2.5-2.1-3.6-2.1-6.1,0-10.6,9-21.2,18-31.8,27.1-.6.5-1,1.5-1,2.2,0,5.5,0,11,0,16.5,0,1.3.1,2.6.5,3.9,1.5,5.7,6.1,8.9,12.5,9,21.3,0,42.5,0,63.8,0h0Z"/>
      <path class="cls-1" d="M200.7,330.1c0-13.6,11.2-24.7,24.8-24.7,13.5,0,24.6,11.2,24.6,24.7,0,13.6-11.2,24.7-24.8,24.6-13.6,0-24.6-11.1-24.6-24.7h0ZM211,330.1c0,7.9,6.4,14.4,14.3,14.4,7.9,0,14.5-6.4,14.5-14.4,0-7.9-6.7-14.6-14.5-14.5-7.9,0-14.3,6.5-14.3,14.4h0Z"/>
      <g>
        <path class="cls-4" d="M257.6,209.5c-88.6,0-160.4,71.8-160.4,160.5H24.8V51.5c0-17,13.8-30.8,30.8-30.8h403.9c17,0,30.8,13.8,30.8,30.8v318.5h-72.3c0-88.6-71.8-160.5-160.5-160.5h0Z"/>
        <path class="cls-4" d="M459.5,719.2H55.6c-17,0-30.8-13.8-30.8-30.8v-318.5h72.3c0,88.6,71.8,160.5,160.4,160.5s160.5-71.8,160.5-160.5h72.3v318.5c0,17-13.8,30.8-30.8,30.8Z"/>
      </g>
      <path class="cls-2" d="M200.7,335.1c0-13.6,11.2-24.7,24.8-24.7,13.5,0,24.6,11.2,24.6,24.7,0,13.6-11.2,24.7-24.8,24.6-13.6,0-24.6-11.1-24.6-24.7h0ZM211,335.1c0,7.9,6.4,14.4,14.3,14.4,7.9,0,14.5-6.4,14.5-14.4,0-7.9-6.7-14.6-14.5-14.5-7.9,0-14.3,6.5-14.3,14.4h0Z"/>
    </g>
  </g>
</svg>