<?xml version="1.0" encoding="UTF-8"?>
<svg id="Calque_2" xmlns="http://www.w3.org/2000/svg" viewBox="0 0 49.82 22.52">
  <g id="Calque_2-2" data-name="Calque_2">
    <g>
      <path d="M.45,8.08c-.07,0-.13-.01-.19-.04-.06-.03-.1-.07-.14-.11-.04-.05-.07-.1-.09-.16-.02-.06-.03-.12-.03-.18,0-.09.01-.17.04-.24s.07-.12.12-.17.1-.08.16-.1.12-.04.17-.04c.07,0,.13.01.18.04.06.03.1.06.14.1s.07.09.09.15c.02.06.03.12.03.18,0,.07-.01.14-.04.21s-.06.13-.1.18c-.04.05-.1.1-.16.13-.06.03-.13.05-.2.05Z"/>
      <path d="M2.41,8.08c-.07,0-.13-.01-.19-.04-.06-.03-.1-.07-.14-.11-.04-.05-.07-.1-.09-.16-.02-.06-.03-.12-.03-.18,0-.09.01-.17.04-.24s.07-.12.12-.17.1-.08.16-.1.12-.04.17-.04c.07,0,.13.01.18.04.06.03.1.06.14.1s.07.09.09.15c.02.06.03.12.03.18,0,.07-.01.14-.04.21s-.06.13-.1.18c-.04.05-.1.1-.16.13-.06.03-.13.05-.2.05Z"/>
      <path d="M4.38,8.08c-.07,0-.13-.01-.19-.04-.06-.03-.1-.07-.14-.11-.04-.05-.07-.1-.09-.16-.02-.06-.03-.12-.03-.18,0-.09.01-.17.04-.24s.07-.12.12-.17.1-.08.16-.1.12-.04.17-.04c.07,0,.13.01.18.04.06.03.1.06.14.1s.07.09.09.15c.02.06.03.12.03.18,0,.07-.01.14-.04.21s-.06.13-.1.18c-.04.05-.1.1-.16.13-.06.03-.13.05-.2.05Z"/>
      <path d="M9.29,1.62c-.08.37-.15.75-.21,1.15-.06.39-.1.79-.14,1.17.09,0,.18,0,.27,0s.17,0,.24,0c.07,0,.14,0,.21,0h.15c.18,0,.32-.01.44-.03,0,.03.02.06.02.09s0,.05,0,.08c0,.09-.04.14-.11.17-.07.03-.17.04-.31.04s-.27,0-.43-.02-.33-.03-.52-.04c-.02.21-.04.41-.05.61-.02.2-.03.39-.04.56,0,.18-.02.34-.02.49s0,.28,0,.39c0,.21.01.4.03.56s.06.3.11.42c.05.12.13.2.23.26s.22.09.36.09c.11,0,.22-.02.35-.06s.28-.1.44-.18c.05.05.08.12.09.19-.12.08-.24.15-.37.22s-.24.12-.36.17-.23.08-.35.11-.22.04-.32.04c-.13,0-.25-.02-.36-.07-.11-.05-.2-.13-.28-.25-.08-.12-.14-.29-.19-.49-.04-.21-.07-.47-.07-.79,0-.18,0-.36,0-.55s.01-.38.02-.57.02-.39.04-.58.03-.38.05-.57c-.15,0-.3,0-.43.02-.13.01-.25.03-.34.05,0-.01,0-.03,0-.04,0-.04.02-.08.06-.12.04-.04.09-.07.17-.1s.16-.05.26-.07.21-.03.33-.04c.04-.41.09-.79.14-1.16s.1-.69.15-.97c0-.05.03-.09.05-.13.03-.03.06-.06.09-.08s.07-.03.11-.04.08-.01.12-.01c.06,0,.12,0,.17.02s.1.03.15.06Z"/>
      <path d="M11.58,6.4c.15-.49.31-.91.48-1.26.17-.34.34-.62.52-.84.17-.21.35-.37.52-.46s.34-.14.5-.14c.11,0,.21.02.32.06s.19.11.27.19c.08.09.14.2.19.34s.07.3.07.5c0,.06,0,.14,0,.24,0,.1-.02.21-.03.34,0,.12-.02.25-.03.39-.01.14-.02.27-.03.4s-.02.26-.02.38c0,.12-.01.22-.01.31,0,.15,0,.28.02.37s.03.17.06.23c.03.06.07.09.12.12.05.02.11.03.18.03.1,0,.21-.01.32-.04s.22-.07.33-.12l.06.15c-.07.06-.16.11-.27.17s-.22.11-.34.16-.24.09-.35.12c-.12.03-.22.04-.31.04-.11,0-.19-.03-.25-.08s-.11-.13-.14-.23-.05-.21-.06-.34c0-.13-.01-.27-.01-.42,0-.18,0-.37.02-.56s.03-.38.04-.56c.02-.18.03-.34.04-.49s.02-.27.02-.36c0-.22-.04-.38-.13-.49-.08-.11-.2-.16-.34-.16-.11,0-.23.05-.36.14-.12.1-.25.23-.38.39-.12.17-.24.36-.36.59s-.22.47-.31.74-.17.54-.23.83-.1.58-.11.87l-.62.08h-.05c.01-.23.02-.49.04-.77.01-.28.03-.57.05-.89.02-.31.03-.64.05-.98.02-.34.04-.68.05-1.04s.04-.71.06-1.06.04-.71.06-1.06c.02-.35.04-.69.05-1.02s.03-.65.05-.96c0-.05.02-.09.04-.12s.06-.06.1-.08c.04-.02.09-.04.14-.05s.1-.01.16-.01c.12,0,.24.03.37.09-.04.4-.08.76-.12,1.1s-.07.64-.09.93c-.03.28-.05.55-.08.79-.02.25-.04.48-.06.71-.02.23-.04.45-.05.66s-.03.43-.05.66-.03.45-.05.69-.03.5-.05.77h.02Z"/>
      <path d="M18.63,7.05s.03.01.05.03c.02.01.04.02.05.04s.03.03.04.04c.01.01.02.03.02.04,0,0,0,.02,0,.02-.11.15-.23.29-.35.4-.13.11-.26.21-.39.28-.14.07-.27.13-.42.17s-.28.05-.42.05c-.23,0-.45-.05-.64-.14s-.36-.23-.5-.39-.25-.36-.33-.58c-.08-.22-.12-.46-.12-.72,0-.21.02-.42.07-.63s.11-.41.2-.6.19-.37.32-.53c.12-.16.27-.3.43-.42.16-.12.33-.21.53-.28.19-.07.39-.1.61-.1.14,0,.28.02.41.06s.25.09.34.17c.1.07.18.16.24.27s.09.23.09.37c0,.2-.07.37-.19.52-.13.15-.31.27-.54.38s-.5.19-.81.25-.64.11-1,.14v.05c0,.25.03.48.09.69s.15.38.26.53c.11.15.24.26.39.34s.31.12.49.12.36-.04.54-.13c.19-.09.37-.23.56-.42ZM18.08,4.7c0-.09-.02-.17-.05-.25s-.07-.15-.12-.2c-.05-.06-.12-.1-.19-.14s-.15-.05-.24-.05c-.13,0-.24.02-.35.07s-.2.11-.28.18c-.08.08-.15.17-.22.27-.06.1-.12.21-.16.33-.04.12-.08.23-.11.35s-.05.24-.06.35c.28-.02.53-.05.75-.1.22-.05.41-.11.56-.19.15-.07.27-.16.35-.27.08-.1.12-.22.12-.36Z"/>
      <path d="M19.8,8.03h-.05c.02-.19.03-.39.04-.61s.03-.44.04-.67c.01-.23.02-.45.03-.67,0-.22.02-.43.02-.62,0-.19.01-.36.01-.52,0-.15,0-.27,0-.36,0-.07,0-.13,0-.19s-.02-.1-.04-.13c-.02-.04-.05-.06-.09-.08s-.09-.03-.16-.03c-.03,0-.07,0-.1,0s-.07,0-.12.02-.09.02-.15.03-.12.03-.19.04l-.04-.21c.32-.12.59-.2.79-.25.2-.05.34-.07.41-.07.13,0,.22.04.28.11.06.08.08.19.08.34,0,.01,0,.05,0,.12s0,.15-.02.26c0,.11-.02.23-.03.37s-.02.29-.03.45c-.01.16-.03.33-.04.5s-.03.35-.05.52h.03c.09-.38.2-.74.32-1.07.12-.33.25-.62.4-.86s.31-.44.49-.58c.18-.14.37-.21.58-.21.07,0,.14.01.21.04s.12.06.17.1c.05.04.08.09.11.15s.04.12.04.19c0,.09-.02.17-.06.25-.04.08-.1.15-.18.22h-.02c-.08-.07-.16-.12-.23-.15-.07-.03-.15-.05-.23-.05-.09,0-.17.02-.25.05s-.16.08-.23.14c-.11.1-.21.24-.31.4-.1.17-.18.35-.26.55-.08.2-.15.42-.21.64s-.12.44-.16.65c-.05.21-.08.41-.11.6-.03.19-.05.34-.06.47l-.61.08Z"/>
      <path d="M25.75,7.05s.03.01.05.03c.02.01.04.02.05.04s.03.03.04.04c.01.01.02.03.02.04,0,0,0,.02,0,.02-.11.15-.23.29-.35.4-.13.11-.26.21-.39.28-.14.07-.27.13-.42.17s-.28.05-.42.05c-.23,0-.45-.05-.64-.14s-.36-.23-.5-.39-.25-.36-.33-.58c-.08-.22-.12-.46-.12-.72,0-.21.02-.42.07-.63s.11-.41.2-.6.19-.37.32-.53c.12-.16.27-.3.43-.42.16-.12.33-.21.53-.28.19-.07.39-.1.61-.1.14,0,.28.02.41.06s.25.09.34.17c.1.07.18.16.24.27s.09.23.09.37c0,.2-.07.37-.19.52-.13.15-.31.27-.54.38s-.5.19-.81.25-.64.11-1,.14v.05c0,.25.03.48.09.69s.15.38.26.53c.11.15.24.26.39.34s.31.12.49.12.36-.04.54-.13c.19-.09.37-.23.56-.42ZM25.2,4.7c0-.09-.02-.17-.05-.25s-.07-.15-.12-.2c-.05-.06-.12-.1-.19-.14s-.15-.05-.24-.05c-.13,0-.24.02-.35.07s-.2.11-.28.18c-.08.08-.15.17-.22.27-.06.1-.12.21-.16.33-.04.12-.08.23-.11.35s-.05.24-.06.35c.28-.02.53-.05.75-.1.22-.05.41-.11.56-.19.15-.07.27-.16.35-.27.08-.1.12-.22.12-.36Z"/>
      <path d="M29.72,3.83c-.03.22-.06.45-.08.67-.02.22-.04.44-.06.65-.02.21-.03.41-.03.59,0,.19,0,.36,0,.51,0,.2,0,.38,0,.52s.02.27.03.37.03.18.05.24c.02.06.04.11.08.14.03.03.06.05.11.06.04,0,.08.01.14.01.09,0,.19-.01.3-.04.11-.03.22-.07.33-.12l.06.15c-.07.06-.16.11-.27.17s-.22.11-.33.16-.23.09-.34.12c-.11.03-.21.04-.29.04-.05,0-.1,0-.15-.01-.04,0-.09-.03-.12-.07s-.07-.09-.1-.16c-.03-.07-.05-.16-.07-.28-.02-.12-.03-.26-.04-.44s-.01-.39-.01-.64c0-.15,0-.31,0-.5,0-.18,0-.38.01-.59s.01-.44.02-.67c0-.23.02-.48.04-.73,0-.05.02-.1.04-.13.03-.03.06-.06.09-.08s.08-.03.12-.04c.04,0,.08,0,.12,0,.13,0,.25.03.37.09ZM29.47,2.51c-.07,0-.13-.01-.18-.04s-.1-.07-.13-.11-.07-.1-.08-.16-.03-.12-.03-.18c0-.09.01-.17.04-.23.03-.07.07-.12.11-.17s.1-.08.16-.1c.06-.02.11-.03.17-.03.07,0,.13.01.18.04s.1.06.14.1c.04.04.07.09.09.15.02.06.03.12.03.18,0,.07-.01.14-.04.2-.02.07-.06.13-.1.18s-.09.1-.15.13-.12.05-.2.05Z"/>
      <path d="M31.31,6.9c.01.15.05.28.12.38.06.11.15.2.24.26s.2.12.32.15.23.05.35.05c.11,0,.21-.01.31-.04s.19-.07.26-.13.14-.12.18-.2c.04-.08.07-.17.07-.27s-.02-.19-.07-.27-.11-.15-.2-.21-.18-.12-.29-.18c-.11-.05-.22-.11-.34-.17-.1-.05-.21-.1-.31-.15-.11-.05-.21-.1-.3-.16s-.19-.12-.27-.19c-.08-.07-.16-.14-.22-.23-.06-.08-.11-.18-.15-.28-.04-.1-.05-.22-.05-.34,0-.13.02-.26.07-.37s.11-.22.19-.31c.08-.09.17-.17.28-.24s.22-.12.34-.17.25-.08.37-.1c.13-.02.25-.03.37-.03.16,0,.3.02.44.05.14.04.26.08.37.15s.19.14.25.24c.06.09.09.2.09.32,0,.04,0,.09-.02.15s-.04.1-.08.15-.09.08-.15.12-.13.05-.22.05c-.08,0-.17-.01-.26-.04v-.03c.02-.06.04-.12.05-.17s.02-.1.02-.15c0-.09-.03-.17-.07-.23-.04-.06-.1-.11-.17-.15s-.14-.07-.22-.08c-.08-.02-.16-.03-.24-.03-.14,0-.26.02-.37.06s-.2.09-.28.15c-.08.06-.13.13-.17.21-.04.08-.06.16-.06.24,0,.11.03.2.08.29.06.08.13.16.23.23s.2.14.32.2c.12.06.25.12.38.19.15.07.3.14.44.22.15.08.28.16.39.26s.21.21.28.33c.07.12.11.27.11.44,0,.2-.04.38-.13.54-.09.16-.21.29-.36.4s-.32.19-.51.25c-.19.05-.39.08-.6.08-.1,0-.21,0-.32-.02-.11-.02-.22-.04-.32-.07s-.2-.07-.29-.12c-.09-.04-.17-.1-.24-.16-.07-.06-.12-.12-.16-.2-.04-.07-.06-.15-.06-.24,0-.08.02-.14.05-.19.03-.05.08-.1.13-.13s.11-.06.18-.08c.07-.02.13-.03.2-.03l.02.02Z"/>
      <path d="M37,4.59c0-.08,0-.15-.02-.2s-.03-.1-.05-.13c-.03-.03-.06-.06-.09-.07s-.08-.02-.13-.02c-.07,0-.15,0-.25.03s-.21.05-.33.08l-.04-.21c.14-.05.27-.09.4-.13.13-.04.25-.07.35-.1s.2-.05.28-.07.15-.02.19-.02c.11,0,.2.03.26.1.06.07.1.18.1.35,0,.02,0,.07,0,.14s0,.16-.02.27c0,.11-.02.24-.03.38,0,.14-.02.29-.03.45-.01.16-.03.33-.04.5-.02.17-.03.34-.05.51h.02c.15-.5.31-.93.48-1.27.17-.35.34-.63.52-.84.18-.21.35-.37.52-.47s.34-.14.5-.14c.11,0,.21.02.32.06s.19.11.27.2c.08.09.14.21.19.35.05.14.07.31.07.51,0,.06,0,.14-.01.24,0,.1-.01.21-.02.33s-.02.25-.03.38c-.01.14-.02.27-.03.4s-.02.26-.03.37c0,.12,0,.22,0,.31,0,.15,0,.28.02.37.01.1.03.17.06.23.03.06.07.09.12.12.05.02.11.03.18.03.1,0,.21-.01.32-.04s.22-.07.33-.12l.06.15c-.07.06-.16.11-.27.17s-.22.11-.34.16c-.12.05-.24.09-.35.12-.12.03-.22.04-.31.04-.11,0-.19-.03-.25-.08s-.11-.13-.14-.23c-.03-.1-.05-.21-.06-.34,0-.13-.01-.27-.01-.42,0-.18,0-.37.02-.57.01-.19.03-.38.04-.55s.03-.34.04-.48c.01-.14.02-.26.02-.34,0-.23-.04-.4-.13-.5-.09-.11-.2-.16-.34-.16-.11,0-.23.05-.36.14s-.25.23-.37.39c-.12.17-.24.36-.36.59-.11.23-.22.47-.31.74s-.17.54-.23.83-.1.58-.11.87l-.61.08h-.05c.02-.19.03-.39.04-.61s.03-.44.04-.67c.01-.23.02-.45.03-.67,0-.22.02-.43.02-.62,0-.19.01-.36.01-.52,0-.15,0-.27,0-.36Z"/>
      <path d="M41.57,6.27c0-.2.02-.4.06-.6s.1-.4.18-.59c.08-.19.18-.37.3-.54.12-.17.25-.31.41-.44s.33-.22.52-.3.4-.11.62-.11c.25,0,.47.05.66.16s.35.24.49.42c.13.17.23.37.3.59.07.22.1.45.1.68,0,.2-.02.4-.06.6s-.1.4-.18.59c-.08.19-.18.37-.3.54-.12.17-.25.31-.41.44s-.33.22-.52.3-.4.11-.62.11c-.25,0-.47-.05-.66-.16-.19-.11-.35-.24-.48-.42-.13-.17-.23-.37-.29-.59-.07-.22-.1-.45-.1-.68ZM42.27,5.99c0,.13.01.27.03.4.02.14.05.27.1.4s.1.25.16.36c.06.11.14.21.22.29s.19.15.29.19c.11.05.23.07.36.07.14,0,.27-.03.38-.09.11-.06.2-.14.28-.24.08-.1.14-.22.2-.35s.09-.27.12-.41.05-.28.07-.42c.01-.14.02-.26.02-.38,0-.13-.01-.27-.03-.41-.02-.13-.05-.27-.1-.39-.04-.12-.1-.24-.16-.35s-.14-.21-.22-.29c-.09-.08-.19-.15-.29-.19-.11-.05-.23-.07-.36-.07-.14,0-.27.03-.38.09-.11.06-.2.14-.28.24-.08.1-.14.22-.2.35-.05.13-.09.27-.12.4s-.05.28-.07.41c-.01.14-.02.26-.02.38Z"/>
      <path d="M12.64,16.54c0-.08,0-.15-.02-.21s-.04-.11-.07-.14-.08-.06-.14-.08-.14-.03-.23-.03c-.13,0-.29.01-.5.04l-.04-.26c.18-.03.38-.07.6-.1.22-.04.44-.07.67-.1s.46-.05.69-.07c.23-.02.45-.03.67-.03.28,0,.54.03.79.08s.46.14.65.26c.18.12.33.29.44.49s.16.46.16.77c0,.36-.06.68-.18.96-.12.29-.29.53-.5.72s-.48.35-.78.45c-.3.1-.64.16-1.01.16-.08,0-.14-.01-.17-.04s-.05-.08-.05-.16v-.04s0-.03,0-.04c.29,0,.53-.03.74-.09.21-.06.38-.14.52-.24.14-.1.25-.21.34-.34.08-.13.15-.26.19-.39.04-.13.07-.27.09-.4s.02-.25.02-.35c0-.28-.04-.52-.12-.71-.08-.19-.19-.34-.32-.45s-.29-.19-.48-.24c-.18-.04-.38-.07-.58-.07-.1,0-.2,0-.3.01s-.2.02-.31.03c0,.15,0,.35-.02.6,0,.25-.02.54-.02.87,0,.33-.02.69-.03,1.08-.01.39-.02.8-.04,1.22-.01.43-.02.86-.04,1.31-.01.45-.03.89-.04,1.34l-.69.09h-.05c.02-.57.04-1.1.06-1.6s.04-.99.05-1.47c.01-.47.02-.95.03-1.41,0-.46.01-.94.01-1.43Z"/>
      <path d="M18.31,14.49c-.04.33-.08.67-.12,1.02-.04.35-.08.7-.11,1.06-.03.36-.07.71-.09,1.07s-.05.71-.08,1.06c-.02.35-.04.69-.05,1.03s-.02.66-.02.97c0,.19,0,.36,0,.5,0,.14.01.26.02.35,0,.1.02.17.04.23s.04.1.07.13.06.05.1.06c.04.01.08.02.13.02.09,0,.19-.01.3-.04.11-.03.22-.07.33-.12l.06.15c-.07.06-.16.11-.27.17s-.22.11-.33.16-.23.09-.34.12c-.11.03-.21.04-.29.04-.11,0-.19-.03-.25-.08-.06-.05-.11-.14-.14-.26-.03-.12-.05-.28-.06-.47,0-.19-.01-.43-.01-.71,0-.1,0-.25,0-.43s.01-.41.03-.66c0-.25.02-.52.04-.82s.03-.6.04-.92c.02-.32.03-.64.05-.96.02-.32.04-.63.05-.94.02-.3.03-.59.05-.85s.03-.5.04-.71c0-.05.02-.09.04-.12s.06-.06.1-.08c.04-.02.08-.04.13-.05.05,0,.1-.01.15-.01.12,0,.24.03.37.09Z"/>
      <path d="M21.65,19.35c0-.15-.03-.29-.08-.4s-.12-.21-.2-.28-.17-.13-.28-.16-.21-.05-.31-.05c-.14,0-.26.01-.35.04s-.17.07-.23.12c-.06.05-.1.11-.13.18-.03.07-.04.14-.04.22,0,.09.02.19.05.28.03.1.08.19.15.28v.03c-.12.05-.24.08-.35.08-.07,0-.13-.01-.19-.03-.06-.02-.11-.05-.15-.09-.04-.04-.08-.09-.1-.14-.03-.06-.04-.12-.04-.19,0-.12.03-.22.08-.33.05-.1.13-.19.22-.28s.2-.16.32-.23.25-.12.38-.17c.13-.04.26-.08.39-.11.13-.02.25-.04.36-.04.21,0,.38.03.53.08.14.05.26.13.35.24.09.1.16.23.2.38s.06.32.06.5c0,.13,0,.27-.02.42s-.02.32-.04.49-.03.34-.04.52c-.01.18-.02.36-.02.54,0,.28.05.49.16.63.1.14.24.21.41.21.15,0,.32-.06.5-.17l.08.13c-.13.13-.27.23-.43.3s-.32.1-.49.1c-.13,0-.24-.02-.35-.06s-.2-.11-.28-.19c-.08-.09-.14-.19-.18-.32s-.06-.28-.06-.45c0-.05,0-.1,0-.15,0-.05,0-.1.02-.16h-.02c-.08.17-.18.33-.29.5s-.23.31-.36.44c-.13.13-.27.23-.42.31-.15.08-.31.12-.47.12-.13,0-.26-.02-.37-.07s-.21-.11-.29-.19c-.08-.08-.14-.18-.18-.29-.04-.11-.07-.24-.07-.37,0-.17.03-.33.1-.47.06-.14.15-.27.26-.38.11-.11.25-.21.4-.29.16-.08.33-.15.51-.2s.38-.09.58-.12c.21-.03.41-.04.63-.04.01-.12.02-.24.03-.36,0-.12.01-.24.01-.38ZM19.85,21.36c0,.08,0,.15.02.22.02.07.04.13.08.18.04.05.08.09.14.12.06.03.12.04.2.04.09,0,.18-.02.27-.06s.19-.1.28-.17c.09-.07.18-.16.26-.26.08-.1.16-.21.22-.33s.12-.24.17-.38c.04-.13.07-.27.09-.41-.14,0-.29.01-.43.03-.14.01-.28.04-.41.07s-.25.07-.36.12-.2.11-.28.19c-.08.08-.14.16-.19.27-.04.1-.07.22-.07.36Z"/>
      <path d="M24.04,18.99c0-.08,0-.15-.02-.2s-.03-.1-.05-.13c-.03-.03-.06-.06-.09-.07s-.08-.02-.13-.02c-.07,0-.15,0-.25.03s-.21.05-.33.08l-.04-.21c.14-.05.27-.09.4-.13.13-.04.25-.07.35-.1s.2-.05.28-.07.15-.02.19-.02c.11,0,.2.03.26.1.06.07.1.18.1.35,0,.02,0,.07,0,.14s0,.16-.02.27c0,.11-.02.24-.03.38,0,.14-.02.29-.03.45-.01.16-.03.33-.04.5-.02.17-.03.34-.05.51h.02c.15-.5.31-.93.48-1.27.17-.35.34-.63.52-.84.18-.21.35-.37.52-.47s.34-.14.5-.14c.11,0,.21.02.32.06s.19.11.27.2c.08.09.14.21.19.35.05.14.07.31.07.51,0,.06,0,.14-.01.24,0,.1-.01.21-.02.33s-.02.25-.03.38c-.01.14-.02.27-.03.4s-.02.26-.03.37c0,.12,0,.22,0,.31,0,.15,0,.28.02.37.01.1.03.17.06.23.03.06.07.09.12.12.05.02.11.03.18.03.1,0,.21-.01.32-.04s.22-.07.33-.12l.06.15c-.07.06-.16.11-.27.17s-.22.11-.34.16c-.12.05-.24.09-.35.12-.12.03-.22.04-.31.04-.11,0-.19-.03-.25-.08s-.11-.13-.14-.23c-.03-.1-.05-.21-.06-.34,0-.13-.01-.27-.01-.42,0-.18,0-.37.02-.57.01-.19.03-.38.04-.55s.03-.34.04-.48c.01-.14.02-.26.02-.34,0-.23-.04-.4-.13-.5-.09-.11-.2-.16-.34-.16-.11,0-.23.05-.36.14s-.25.23-.37.39c-.12.17-.24.36-.36.59-.11.23-.22.47-.31.74s-.17.54-.23.83-.1.58-.11.87l-.61.08h-.05c.02-.19.03-.39.04-.61s.03-.44.04-.67c.01-.23.02-.45.03-.67,0-.22.02-.43.02-.62,0-.19.01-.36.01-.52,0-.15,0-.27,0-.36Z"/>
      <path d="M31.61,21.45s.03.01.05.03c.02.01.04.02.05.04s.03.03.04.04c.01.01.02.03.02.04,0,0,0,.02,0,.02-.11.15-.23.29-.35.4-.13.11-.26.21-.39.28-.14.07-.27.13-.42.17s-.28.05-.42.05c-.23,0-.45-.05-.64-.14s-.36-.23-.5-.39-.25-.36-.33-.58c-.08-.22-.12-.46-.12-.72,0-.21.02-.42.07-.63s.11-.41.2-.6.19-.37.32-.53c.12-.16.27-.3.43-.42.16-.12.33-.21.53-.28.19-.07.39-.1.61-.1.14,0,.28.02.41.06s.25.09.34.17c.1.07.18.16.24.27s.09.23.09.37c0,.2-.07.37-.19.52-.13.15-.31.27-.54.38s-.5.19-.81.25-.64.11-1,.14v.05c0,.25.03.48.09.69s.15.38.26.53c.11.15.24.26.39.34s.31.12.49.12.36-.04.54-.13c.19-.09.37-.23.56-.42ZM31.06,19.1c0-.09-.02-.17-.05-.25s-.07-.15-.12-.2c-.05-.06-.12-.1-.19-.14s-.15-.05-.24-.05c-.13,0-.24.02-.35.07s-.2.11-.28.18c-.08.08-.15.17-.22.27-.06.1-.12.21-.16.33-.04.12-.08.23-.11.35s-.05.24-.06.35c.28-.02.53-.05.75-.1.22-.05.41-.11.56-.19.15-.07.27-.16.35-.27.08-.1.12-.22.12-.36Z"/>
      <path d="M33.85,16.02c-.08.37-.15.75-.21,1.15-.06.39-.1.79-.14,1.17.09,0,.18,0,.27,0s.17,0,.24,0c.07,0,.14,0,.21,0h.15c.18,0,.32-.01.44-.03,0,.03.02.06.02.09s0,.05,0,.08c0,.09-.04.14-.11.17-.07.03-.17.04-.31.04s-.27,0-.43-.02-.33-.03-.52-.04c-.02.21-.04.41-.05.61-.02.2-.03.39-.04.56,0,.18-.02.34-.02.49s0,.28,0,.39c0,.21.01.4.03.56s.06.3.11.42c.05.12.13.2.23.26s.22.09.36.09c.11,0,.22-.02.35-.06s.28-.1.44-.18c.05.05.08.12.09.19-.12.08-.24.15-.37.22s-.24.12-.36.17-.23.08-.35.11-.22.04-.32.04c-.13,0-.25-.02-.36-.07-.11-.05-.2-.13-.28-.25-.08-.12-.14-.29-.19-.49-.04-.21-.07-.47-.07-.79,0-.18,0-.36,0-.55s.01-.38.02-.57.02-.39.04-.58.03-.38.05-.57c-.15,0-.3,0-.43.02-.13.01-.25.03-.34.05,0-.01,0-.03,0-.04,0-.04.02-.08.06-.12.04-.04.09-.07.17-.1s.16-.05.26-.07.21-.03.33-.04c.04-.41.09-.79.14-1.16s.1-.69.15-.97c0-.05.03-.09.05-.13.03-.03.06-.06.09-.08s.07-.03.11-.04.08-.01.12-.01c.06,0,.12,0,.17.02s.1.03.15.06Z"/>
      <path d="M38.07,16.54c0-.08,0-.15-.02-.21s-.04-.11-.07-.14-.08-.06-.14-.08-.14-.03-.23-.03c-.13,0-.29.01-.5.04l-.03-.26c.18-.03.37-.07.58-.1s.42-.07.65-.1.44-.05.67-.07.44-.03.65-.03c.17,0,.34,0,.5.03s.32.05.47.09c.15.04.28.09.4.16.12.07.23.15.32.25s.16.22.21.35.08.29.08.47c0,.25-.04.48-.14.67-.09.2-.21.37-.37.51s-.33.27-.53.37c-.2.1-.41.18-.64.24v.03c.29.02.56.07.81.15s.46.18.64.33.32.31.43.52c.1.21.15.45.15.74,0,.24-.03.45-.1.64-.07.19-.16.36-.27.51s-.25.28-.41.38c-.16.11-.33.19-.51.26s-.38.12-.58.15c-.2.03-.41.05-.62.05-.17,0-.34,0-.49-.03s-.32-.04-.5-.07l-.57.07h-.05c.03-.26.05-.54.07-.84.02-.3.04-.61.05-.94.02-.33.03-.66.04-1s.02-.69.03-1.04c0-.35.01-.69.01-1.04,0-.34,0-.68,0-1.01ZM38.62,21.99c.15.04.29.06.42.08s.27.02.4.02c.24,0,.47-.03.68-.09.21-.06.39-.15.55-.28.15-.13.28-.29.37-.49.09-.2.13-.44.13-.72,0-.26-.04-.49-.13-.68-.09-.2-.22-.36-.39-.49s-.38-.23-.63-.29-.54-.1-.86-.1c-.06,0-.13,0-.19,0-.07,0-.13,0-.2,0,0,.12,0,.26-.01.42s-.01.33-.02.51-.02.37-.02.56c0,.19-.02.38-.03.57s-.02.36-.03.53-.02.32-.03.45ZM38.84,15.94c0,.13,0,.28,0,.47,0,.18,0,.39-.01.62s-.01.48-.02.75-.01.55-.02.85c.17,0,.34-.02.51-.04.17-.02.33-.06.48-.11s.29-.11.42-.19c.13-.08.24-.17.33-.29s.17-.24.22-.39c.05-.15.08-.32.08-.51,0-.22-.04-.41-.11-.57s-.17-.28-.3-.37c-.13-.09-.27-.16-.44-.2s-.35-.06-.54-.06c-.09,0-.19,0-.29.01s-.2.02-.3.04Z"/>
      <path d="M45.38,22.48c-.07,0-.13-.01-.19-.04-.06-.03-.1-.07-.14-.11-.04-.05-.07-.1-.09-.16-.02-.06-.03-.12-.03-.18,0-.09.01-.17.04-.24s.07-.12.12-.17.1-.08.16-.1.12-.04.17-.04c.07,0,.13.01.18.04.06.03.1.06.14.1s.07.09.09.15c.02.06.03.12.03.18,0,.07-.01.14-.04.21s-.06.13-.1.18c-.04.05-.1.1-.16.13-.06.03-.13.05-.2.05Z"/>
      <path d="M47.35,22.48c-.07,0-.13-.01-.19-.04-.06-.03-.1-.07-.14-.11-.04-.05-.07-.1-.09-.16-.02-.06-.03-.12-.03-.18,0-.09.01-.17.04-.24s.07-.12.12-.17.1-.08.16-.1.12-.04.17-.04c.07,0,.13.01.18.04.06.03.1.06.14.1s.07.09.09.15c.02.06.03.12.03.18,0,.07-.01.14-.04.21s-.06.13-.1.18c-.04.05-.1.1-.16.13-.06.03-.13.05-.2.05Z"/>
      <path d="M49.32,22.48c-.07,0-.13-.01-.19-.04-.06-.03-.1-.07-.14-.11-.04-.05-.07-.1-.09-.16-.02-.06-.03-.12-.03-.18,0-.09.01-.17.04-.24s.07-.12.12-.17.1-.08.16-.1.12-.04.17-.04c.07,0,.13.01.18.04.06.03.1.06.14.1s.07.09.09.15c.02.06.03.12.03.18,0,.07-.01.14-.04.21s-.06.13-.1.18c-.04.05-.1.1-.16.13-.06.03-.13.05-.2.05Z"/>
    </g>
  </g>
</svg>