<?xml version="1.0" encoding="UTF-8"?>
<svg id="Calque_2" xmlns="http://www.w3.org/2000/svg" viewBox="0 0 2500 2500">
  <defs>
    <style>
      .cls-1 {
        fill: #fff;
      }
    </style>
  </defs>
  <g id="Calque_1-2" data-name="Calque_1">
    <g>
      <path class="cls-1" d="M1250,120c76.75,0,153.41,7.72,227.86,22.96,72.5,14.84,143.81,36.97,211.95,65.79,66.93,28.31,131.5,63.36,191.9,104.16,59.86,40.44,116.16,86.89,167.32,138.05,51.16,51.17,97.61,107.46,138.06,167.32,40.81,60.4,75.85,124.97,104.16,191.9,28.82,68.14,50.96,139.45,65.79,211.95,15.24,74.45,22.96,151.11,22.96,227.86,0,76.75-7.72,153.41-22.96,227.86-14.83,72.5-36.97,143.81-65.79,211.95-28.31,66.93-63.36,131.5-104.16,191.9-40.44,59.86-86.89,116.16-138.05,167.32-51.16,51.16-107.46,97.61-167.32,138.05-60.4,40.81-124.97,75.85-191.9,104.16-68.14,28.82-139.45,50.96-211.95,65.79-74.45,15.24-151.11,22.96-227.86,22.96s-153.41-7.72-227.86-22.96c-72.5-14.83-143.81-36.97-211.95-65.79-66.93-28.31-131.5-63.35-191.9-104.16-59.86-40.44-116.16-86.89-167.32-138.05-51.16-51.16-97.61-107.46-138.05-167.32-40.81-60.4-75.85-124.97-104.16-191.9-28.82-68.14-50.96-139.45-65.79-211.95-15.23-74.45-22.96-151.11-22.96-227.86s7.72-153.41,22.96-227.86c14.83-72.5,36.97-143.81,65.79-211.95,28.31-66.93,63.35-131.5,104.16-191.9,40.44-59.86,86.89-116.15,138.05-167.32,51.16-51.16,107.46-97.61,167.32-138.05,60.4-40.81,124.97-75.85,191.9-104.16,68.14-28.82,139.45-50.96,211.95-65.79,74.45-15.23,151.11-22.96,227.86-22.96M1250,0C559.64,0,0,559.64,0,1250s559.64,1250,1250,1250,1250-559.64,1250-1250C2500,559.64,1940.35,0,1250,0h0Z"/>
      <path class="cls-1" d="M1664.84,524.02h-829.69c-171.58,0-311.13,139.56-311.13,311.13v829.69c0,171.58,139.56,311.13,311.13,311.13h829.69c171.58,0,311.13-139.56,311.13-311.13v-829.69c0-171.58-139.56-311.13-311.13-311.13ZM1872.27,1664.84c0,114.41-93.02,207.42-207.42,207.42h-829.69c-114.41,0-207.42-93.02-207.42-207.42v-829.69c0-114.41,93.02-207.42,207.42-207.42h829.69c114.41,0,207.42,93.02,207.42,207.42v829.69ZM1250,835.15c-228.74,0-414.84,186.1-414.84,414.84s186.1,414.84,414.84,414.84,414.84-186.1,414.84-414.84-186.1-414.84-414.84-414.84ZM1250,1561.13c-171.58,0-311.13-139.56-311.13-311.13s139.56-311.13,311.13-311.13,311.13,139.56,311.13,311.13-139.56,311.13-311.13,311.13ZM1701.67,798.33c9.33,9.85,15.04,23.33,15.04,36.82s-5.7,26.96-15.04,36.82c-9.85,9.33-23.33,15.04-36.82,15.04s-26.96-5.7-36.82-15.04c-9.33-9.85-15.04-23.33-15.04-36.82s5.7-26.96,15.04-36.82c19.19-18.67,53.93-19.19,73.63,0h0Z"/>
    </g>
  </g>
</svg>