<?xml version="1.0" encoding="UTF-8"?>
<svg id="Calque_2" xmlns="http://www.w3.org/2000/svg" version="1.1" viewBox="0 0 2500 2500">
  <!-- Generator: Adobe Illustrator 29.7.1, SVG Export Plug-In . SVG Version: 2.1.1 Build 8)  -->
  <defs>
    <style>
      .st0 {
        fill: #2e519d;
      }
    </style>
  </defs>
  <g id="Calque_1-2">
    <path class="st0" d="M1250,120c76.8,0,153.4,7.7,227.9,23,72.5,14.8,143.8,37,211.9,65.8,66.9,28.3,131.5,63.4,191.9,104.2,59.9,40.4,116.2,86.9,167.3,138.1,51.2,51.2,97.6,107.5,138.1,167.3,40.8,60.4,75.9,125,104.2,191.9,28.8,68.1,51,139.5,65.8,212,15.2,74.5,23,151.1,23,227.9s-7.7,153.4-23,227.9c-14.8,72.5-37,143.8-65.8,211.9-28.3,66.9-63.4,131.5-104.2,191.9-40.4,59.9-86.9,116.2-138.1,167.3-51.2,51.2-107.5,97.6-167.3,138.1-60.4,40.8-125,75.9-191.9,104.2-68.1,28.8-139.4,51-211.9,65.8-74.4,15.2-151.1,23-227.9,23s-153.4-7.7-227.9-23c-72.5-14.8-143.8-37-212-65.8-66.9-28.3-131.5-63.4-191.9-104.2-59.9-40.4-116.2-86.9-167.3-138.1-51.2-51.2-97.6-107.5-138-167.3-40.8-60.4-75.9-125-104.2-191.9-28.8-68.1-51-139.4-65.8-211.9-15.2-74.4-23-151.1-23-227.9s7.7-153.4,23-227.9c14.8-72.5,37-143.8,65.8-212,28.3-66.9,63.4-131.5,104.2-191.9,40.4-59.9,86.9-116.1,138-167.3,51.2-51.2,107.5-97.6,167.3-138,60.4-40.8,125-75.9,191.9-104.2,68.1-28.8,139.5-51,212-65.8,74.5-15.2,151.1-23,227.9-23M1250,0C559.6,0,0,559.6,0,1250s559.6,1250,1250,1250,1250-559.6,1250-1250S1940.3,0,1250,0h0Z"/>
  </g>
  <g>
    <path class="st0" d="M2105.3,1117.8v308.7c-5.5,3.4-3.3,12.6-3.4,18.2-2.2,204.4-19.1,423.4-267.6,449.8-162.6,17.3-341,15.1-505.4,16.5-196.7,1.7-408.9,3.3-604.8-13.2-293.5-24.7-314.2-196.1-317.4-453.1,0-5.6,2.1-14.8-3.4-18.2,2.4-102.7-3.2-206.1,0-308.7,7.1-227.1,15.7-450.1,294.2-474.7,218.2-19.2,455.3-16.4,674.6-13.2,143.3,2.1,293.2.8,435.6,13.2,284.4,24.6,290.3,241.6,297.5,474.7ZM1153.9,727.1c-91.9,1.2-185.1,5.1-276.9,8.9-69.7,2.9-191.4-1.6-253.2,22.6-123.8,48.5-113.7,244.6-117.4,354.1-5.3,157.4-11.7,345.1,10.6,500.7,24.2,169.3,108.2,178.7,260.3,188.2,274.9,17.3,559.6,13.9,834.4,3,79.6-3.1,240.3,4.2,304.1-38.3,89.6-59.7,83.3-238.6,86.7-335,4.3-124.2,6.7-251.1.1-375.3-8.5-159.4-6.7-295.2-198-313.5-205.6-19.7-442.9-18.5-650.5-15.7Z"/>
    <path class="st0" d="M1090.6,982.5c9.1-1.6,18.4-1.6,27.5-.9,26.1,12.3,271.5,144.2,404.5,217.4.4.2.8.5,1.2.8,43.7,35.9,34.8,88.4-11.3,117.7-116.7,74.3-258.9,129.9-378.4,202.1-.4.2-.8.4-1.2.6-43.8,17.1-95.1-12.3-94.7-59,1.1-135,1.1-286,0-417.8,0-.3,0-.6,0-1,2.6-26.6,25.6-55.5,52.3-60.1ZM1138,1113.7v277.6c0,5.5,5.8,9,10.7,6.5l256.5-134.2c5.1-2.7,5.2-10,.2-12.9l-256.5-143.3c-4.9-2.7-10.9.8-10.9,6.4Z"/>
  </g>
</svg>