<?xml version="1.0" encoding="UTF-8"?>
<svg id="Calque_2" xmlns="http://www.w3.org/2000/svg" viewBox="0 0 2500 2500">
  <defs>
    <style>
      .cls-1 {
        fill: #2E519D;
      }
    </style>
  </defs>
  <g id="Calque_1-2" data-name="Calque_1">
    <g>
      <path class="cls-1" d="M1250,120c76.75,0,153.41,7.72,227.86,22.96,72.5,14.83,143.81,36.97,211.95,65.79,66.93,28.31,131.5,63.35,191.9,104.16,59.86,40.44,116.16,86.89,167.32,138.05,51.16,51.16,97.61,107.46,138.06,167.32,40.81,60.4,75.85,124.97,104.16,191.9,28.82,68.14,50.96,139.45,65.79,211.95,15.24,74.45,22.96,151.11,22.96,227.86,0,76.75-7.72,153.41-22.96,227.86-14.83,72.5-36.97,143.81-65.79,211.95-28.31,66.93-63.36,131.5-104.16,191.9-40.44,59.86-86.89,116.16-138.05,167.32-51.16,51.16-107.46,97.61-167.32,138.05-60.4,40.81-124.97,75.85-191.9,104.16-68.14,28.82-139.45,50.96-211.95,65.79-74.45,15.24-151.11,22.96-227.86,22.96s-153.41-7.72-227.86-22.96c-72.5-14.84-143.81-36.97-211.95-65.79-66.93-28.31-131.5-63.35-191.9-104.16-59.86-40.44-116.16-86.89-167.32-138.05s-97.61-107.46-138.05-167.32c-40.81-60.4-75.85-124.97-104.16-191.9-28.82-68.14-50.96-139.45-65.79-211.95-15.23-74.45-22.96-151.11-22.96-227.86s7.72-153.41,22.96-227.86c14.83-72.5,36.97-143.81,65.79-211.95,28.31-66.93,63.35-131.5,104.16-191.9,40.44-59.86,86.89-116.15,138.05-167.32,51.16-51.16,107.46-97.61,167.32-138.05,60.4-40.81,124.97-75.85,191.9-104.16,68.14-28.82,139.45-50.96,211.95-65.79,74.45-15.24,151.11-22.96,227.86-22.96M1250,0C559.64,0,0,559.64,0,1250s559.64,1250,1250,1250,1250-559.64,1250-1250C2500,559.64,1940.35,0,1250,0h0Z"/>
      <g>
        <rect class="cls-1" x="642.05" y="967.65" width="274.45" height="886.67"/>
        <path class="cls-1" d="M777.96,851.53c-89.63,0-162.3-73.26-162.3-163.61s72.67-163.61,162.3-163.61,162.29,73.25,162.29,163.61c0,90.36-72.66,163.61-162.29,163.61Z"/>
        <path class="cls-1" d="M1945,1854.31h-273.12v-465.43c0-127.65-48.49-198.91-149.43-198.91-109.86,0-167.25,74.21-167.25,198.91v465.43h-263.23v-886.67h263.23v119.42s79.18-146.47,267.19-146.47,322.61,114.8,322.61,352.29v561.43s0,0,0,0Z"/>
      </g>
    </g>
  </g>
</svg>