<?xml version="1.0" encoding="UTF-8"?>
<svg id="Calque_2" xmlns="http://www.w3.org/2000/svg" viewBox="0 0 50.32 25.3">
  <g id="Calque_1-2" data-name="Calque_1">
    <g>
      <path d="M4.18,8.08c-.07,0-.13-.01-.19-.04s-.1-.07-.14-.11-.07-.1-.09-.16-.03-.12-.03-.18c0-.09.02-.17.05-.24s.07-.13.12-.17.1-.08.16-.1.12-.04.17-.04c.07,0,.13.01.18.04s.1.06.14.1.07.09.09.15.03.12.03.18c0,.07-.01.14-.04.21s-.06.13-.1.18-.1.1-.16.13-.13.05-.2.05Z"/>
      <path d="M6.15,8.08c-.07,0-.13-.01-.19-.04s-.1-.07-.14-.11-.07-.1-.09-.16-.03-.12-.03-.18c0-.09.02-.17.05-.24s.07-.13.12-.17.1-.08.16-.1.12-.04.17-.04c.07,0,.13.01.18.04s.1.06.14.1.07.09.09.15.03.12.03.18c0,.07-.01.14-.04.21s-.06.13-.1.18-.1.1-.16.13-.13.05-.2.05Z"/>
      <path d="M8.12,8.08c-.07,0-.13-.01-.19-.04s-.1-.07-.14-.11-.07-.1-.09-.16-.03-.12-.03-.18c0-.09.02-.17.05-.24s.07-.13.12-.17.1-.08.16-.1.12-.04.17-.04c.07,0,.13.01.18.04s.1.06.14.1.07.09.09.15.03.12.03.18c0,.07-.01.14-.04.21s-.06.13-.1.18-.1.1-.16.13-.13.05-.2.05Z"/>
      <path d="M10.57,3.83c-.03.22-.06.45-.08.67s-.04.44-.06.65-.03.41-.03.59-.01.35-.01.51c0,.2,0,.38,0,.52s.02.27.03.37.03.18.05.24.05.11.08.14.07.05.11.06.09.01.14.01c.09,0,.19-.01.3-.04s.22-.07.33-.12l.06.15c-.07.06-.16.11-.27.17s-.22.11-.34.16-.23.09-.34.12-.21.05-.29.05c-.05,0-.1,0-.15-.01s-.09-.03-.12-.07-.07-.09-.1-.16-.05-.16-.07-.28-.03-.26-.04-.44-.01-.39-.01-.64c0-.15,0-.31,0-.5s0-.38.01-.59.01-.44.02-.67.02-.48.04-.73c0-.05.02-.1.04-.13s.06-.06.09-.08.08-.03.12-.04.08-.01.12-.01c.13,0,.25.03.37.09ZM10.31,2.51c-.07,0-.13-.01-.18-.04s-.1-.07-.13-.11-.07-.1-.08-.16-.03-.12-.03-.18c0-.09.01-.17.04-.23s.07-.12.11-.17.1-.08.16-.1.11-.03.17-.03c.07,0,.13.01.18.04s.1.06.14.1.07.09.09.15.03.12.03.18c0,.07-.01.14-.04.2s-.06.13-.1.18-.09.1-.15.13-.13.05-.2.05Z"/>
      <path d="M13.15.09c-.04.33-.08.67-.12,1.02s-.07.7-.11,1.06-.07.71-.1,1.07-.05.71-.08,1.06-.04.69-.05,1.03-.02.66-.02.97c0,.19,0,.36,0,.5s.01.26.02.35.03.17.04.23.04.1.07.13.06.05.1.06.08.02.13.02c.09,0,.19-.01.3-.04s.22-.07.33-.12l.06.15c-.07.06-.16.11-.27.17s-.22.11-.34.16-.23.09-.34.12-.21.05-.29.05c-.11,0-.19-.03-.25-.08s-.11-.14-.14-.26-.05-.28-.06-.47-.01-.43-.01-.71c0-.1,0-.25,0-.44s.01-.41.02-.66.02-.52.04-.82.03-.6.04-.92.03-.64.05-.96.04-.64.05-.94.03-.59.05-.85.03-.5.04-.71c0-.05.02-.09.04-.12s.06-.06.1-.08.08-.04.13-.05.1-.01.15-.01c.12,0,.24.03.37.09Z"/>
      <path d="M16.69,4.59c0-.08,0-.15-.02-.2s-.03-.1-.05-.13-.06-.06-.09-.07-.08-.02-.13-.02c-.07,0-.15,0-.25.03s-.21.05-.33.08l-.04-.21c.14-.05.27-.09.4-.13s.25-.07.35-.1.2-.05.28-.07.15-.02.19-.02c.11,0,.2.03.27.1s.1.18.1.35c0,.02,0,.06,0,.14s0,.16-.02.27-.02.23-.02.38-.02.29-.03.45-.03.33-.04.5-.03.34-.05.51h.02c.15-.5.31-.93.48-1.27s.34-.63.52-.84.35-.37.52-.47.34-.14.5-.14c.11,0,.21.02.32.06s.19.11.27.2.14.21.19.35.07.31.07.51c0,.06,0,.14-.01.24s-.02.21-.02.33-.02.25-.03.39-.02.27-.03.4-.02.26-.02.37-.01.22-.01.31c0,.15,0,.28.02.37s.03.17.06.23.07.09.12.11.11.03.18.03c.1,0,.21-.01.32-.04s.22-.07.33-.12l.06.15c-.07.06-.16.11-.27.17s-.22.11-.34.16-.24.09-.35.12-.22.05-.31.05c-.11,0-.19-.03-.25-.08s-.11-.13-.14-.23-.05-.21-.06-.34-.01-.27-.01-.42c0-.18,0-.37.02-.57s.03-.38.04-.56.03-.34.04-.48.02-.26.02-.34c0-.23-.04-.4-.13-.51s-.2-.16-.34-.16c-.11,0-.23.05-.36.14s-.25.23-.37.39-.24.36-.36.59-.22.47-.31.74-.17.54-.23.83-.1.58-.11.87l-.61.08h-.05c.02-.19.03-.39.04-.61s.03-.44.04-.67.02-.45.03-.67.02-.43.02-.62.01-.36.01-.52,0-.27,0-.36Z"/>
      <path d="M20.93,3.4c.1-.08.2-.17.28-.27s.15-.19.21-.29.1-.2.13-.31.05-.2.05-.3c0-.09-.01-.16-.03-.21s-.05-.1-.09-.14-.07-.07-.11-.1-.08-.06-.11-.1-.06-.08-.09-.13-.03-.11-.03-.19c0-.06.01-.11.03-.17s.05-.1.1-.14.09-.07.15-.1.12-.04.19-.04c.1,0,.18.02.25.06s.13.09.18.16.09.15.11.24.04.2.04.3c0,.15-.02.31-.07.47s-.11.33-.2.5-.2.33-.34.48-.3.3-.49.43l-.14-.17Z"/>
      <path d="M23.89,7.98c-.05-.19-.1-.38-.16-.58s-.12-.41-.18-.61-.12-.41-.18-.61-.12-.39-.17-.57-.11-.35-.16-.5-.09-.29-.13-.4c-.04-.12-.08-.21-.12-.28s-.08-.13-.12-.17-.08-.07-.13-.08-.09-.02-.15-.02c-.06,0-.13,0-.2.02s-.16.03-.26.06l-.04-.21c.12-.04.23-.08.34-.12s.22-.07.31-.09.18-.04.25-.06.13-.02.18-.02c.05,0,.1,0,.15.03s.09.05.13.09.09.1.13.18.08.17.12.29c.03.07.06.17.1.29s.08.25.12.4.09.31.14.48.1.35.15.54.1.38.15.58.1.39.15.59c.1-.26.2-.52.31-.8s.21-.56.33-.84.22-.56.33-.84.21-.54.32-.79c.02-.04.04-.08.07-.11s.06-.05.1-.07.08-.03.12-.04.08-.01.12-.01c.06,0,.13,0,.19.03s.12.04.17.07c-.09.14-.18.3-.27.48s-.19.36-.29.56-.2.4-.3.62-.2.43-.3.66-.2.45-.29.67-.19.45-.28.67c-.09.22-.18.44-.26.65s-.16.42-.24.63-.15.4-.23.58-.15.36-.23.52c-.07.15-.15.29-.24.42s-.18.24-.28.34-.21.17-.34.22-.26.08-.41.08c-.09,0-.17-.01-.25-.04s-.14-.06-.19-.1-.09-.09-.12-.14-.04-.11-.04-.17c0-.06.02-.13.06-.2s.09-.12.15-.16c.08.05.17.09.25.11s.16.03.23.03c.16,0,.3-.04.43-.13s.24-.22.35-.39.22-.39.33-.65.23-.57.37-.92l.06-.16-.14-.02Z"/>
      <path d="M31.05,4.95c0-.15-.03-.29-.08-.4s-.12-.21-.2-.28-.17-.13-.28-.16-.21-.05-.31-.05c-.14,0-.26.01-.35.04s-.17.07-.23.12-.1.11-.13.18-.04.14-.04.22c0,.09.02.19.05.28s.08.19.15.28v.03c-.12.05-.24.08-.35.08-.07,0-.13-.01-.19-.03s-.11-.05-.15-.09-.08-.09-.1-.14-.04-.12-.04-.19c0-.12.03-.22.08-.33s.13-.19.22-.28.2-.16.32-.23.25-.12.38-.17.26-.08.39-.11.25-.04.36-.04c.21,0,.38.03.53.08s.26.13.35.24.16.23.2.38.06.32.06.5c0,.13,0,.27-.02.42s-.02.32-.04.48-.03.34-.04.52-.02.36-.02.54c0,.28.05.49.16.63s.24.21.41.21c.15,0,.32-.06.5-.17l.08.13c-.13.13-.27.23-.43.3s-.32.1-.49.1c-.13,0-.24-.02-.35-.06s-.2-.11-.28-.19-.14-.19-.18-.32-.06-.28-.06-.45c0-.05,0-.1,0-.15s0-.1.02-.16h-.02c-.08.17-.18.33-.29.5s-.23.31-.36.44-.27.23-.42.31-.31.12-.47.12c-.13,0-.26-.02-.37-.07s-.21-.11-.29-.19-.14-.18-.18-.29-.07-.23-.07-.37c0-.17.03-.33.1-.47s.15-.27.26-.38.25-.21.4-.29.33-.15.51-.2.38-.09.58-.12.41-.04.63-.04c.01-.12.02-.24.03-.36s.01-.24.01-.38ZM29.25,6.96c0,.08,0,.15.02.22s.04.13.08.18.08.09.14.12.12.05.2.05c.09,0,.18-.02.27-.06s.19-.1.28-.17.18-.16.26-.26.16-.21.22-.33.12-.24.17-.38.07-.27.09-.41c-.14,0-.29.01-.43.03s-.28.04-.41.07-.25.07-.36.12-.2.11-.28.19-.14.16-.19.27-.07.22-.07.36Z"/>
      <path d="M34.52,4.05c.22-.07.41-.12.56-.16s.28-.07.39-.1.19-.04.25-.05.1-.01.13-.01c.05,0,.09,0,.14.02s.08.04.11.07.06.08.07.14.03.13.03.22c0,.03,0,.09,0,.17s0,.2-.02.36-.02.34-.03.56-.03.48-.05.77h.04c.15-.38.32-.71.49-1s.36-.54.54-.74.36-.35.55-.45.35-.15.52-.15c.13,0,.25.02.35.07s.19.12.27.2.14.18.19.29.09.22.12.34.05.24.07.36.02.23.02.34c0,.29-.03.56-.09.81s-.14.48-.24.69-.22.39-.36.56-.29.3-.45.41-.33.2-.51.26-.35.09-.53.09c-.19,0-.37-.03-.55-.1s-.35-.18-.51-.34c-.02.49-.04,1-.06,1.52s-.03,1.07-.04,1.64l-.62.07h-.06c.03-.37.06-.75.08-1.15s.05-.8.07-1.21.04-.8.06-1.19.03-.76.04-1.1.02-.66.03-.94.01-.51.01-.7c0-.07,0-.14-.01-.19s-.02-.1-.05-.14-.06-.06-.1-.08-.1-.03-.17-.03-.16,0-.26.02-.23.04-.38.08l-.04-.22ZM36.04,7.35c.17.14.33.24.5.31s.33.1.5.1c.22,0,.42-.05.6-.14s.34-.23.48-.41.24-.41.31-.68.11-.58.11-.94c0-.13-.01-.27-.03-.41s-.05-.27-.1-.38-.1-.21-.17-.28-.16-.11-.26-.11c-.12,0-.24.03-.35.09s-.23.14-.34.25-.22.23-.32.37-.2.29-.29.45-.17.32-.25.49-.14.33-.19.49-.1.31-.13.45-.06.26-.07.37Z"/>
      <path d="M42.31,4.95c0-.15-.03-.29-.08-.4s-.12-.21-.2-.28-.17-.13-.28-.16-.21-.05-.31-.05c-.14,0-.26.01-.35.04s-.17.07-.23.12-.1.11-.13.18-.04.14-.04.22c0,.09.02.19.05.28s.08.19.15.28v.03c-.12.05-.24.08-.35.08-.07,0-.13-.01-.19-.03s-.11-.05-.15-.09-.08-.09-.1-.14-.04-.12-.04-.19c0-.12.03-.22.08-.33s.13-.19.22-.28.2-.16.32-.23.25-.12.38-.17.26-.08.39-.11.25-.04.36-.04c.21,0,.38.03.53.08s.26.13.35.24.16.23.2.38.06.32.06.5c0,.13,0,.27-.02.42s-.02.32-.04.48-.03.34-.04.52-.02.36-.02.54c0,.28.05.49.16.63s.24.21.41.21c.15,0,.32-.06.5-.17l.08.13c-.13.13-.27.23-.43.3s-.32.1-.49.1c-.13,0-.24-.02-.35-.06s-.2-.11-.28-.19-.14-.19-.18-.32-.06-.28-.06-.45c0-.05,0-.1,0-.15s0-.1.02-.16h-.02c-.08.17-.18.33-.29.5s-.23.31-.36.44-.27.23-.42.31-.31.12-.47.12c-.13,0-.26-.02-.37-.07s-.21-.11-.29-.19-.14-.18-.18-.29-.07-.23-.07-.37c0-.17.03-.33.1-.47s.15-.27.26-.38.25-.21.4-.29.33-.15.51-.2.38-.09.58-.12.41-.04.63-.04c.01-.12.02-.24.03-.36s.01-.24.01-.38ZM40.51,6.96c0,.08,0,.15.02.22s.04.13.08.18.08.09.14.12.12.05.2.05c.09,0,.18-.02.27-.06s.19-.1.28-.17.18-.16.26-.26.16-.21.22-.33.12-.24.17-.38.07-.27.09-.41c-.14,0-.29.01-.43.03s-.28.04-.41.07-.25.07-.36.12-.2.11-.28.19-.14.16-.19.27-.07.22-.07.36Z"/>
      <path d="M44.58,6.9c.01.15.05.28.12.38s.15.2.24.26.2.12.32.15.23.05.35.05c.11,0,.21-.01.31-.04s.19-.07.26-.13.14-.12.18-.2.07-.17.07-.27-.02-.19-.07-.27-.11-.15-.2-.21-.18-.12-.29-.18-.22-.11-.34-.17c-.1-.05-.21-.1-.31-.15s-.21-.1-.3-.16-.19-.12-.27-.19-.16-.14-.22-.23-.11-.18-.15-.28-.05-.22-.05-.34c0-.13.02-.26.07-.37s.11-.22.19-.31.17-.17.28-.24.22-.13.34-.17.25-.08.37-.1.25-.03.37-.03c.16,0,.3.02.44.05s.26.08.37.15.19.15.25.24.09.2.09.32c0,.04,0,.09-.02.15s-.04.1-.08.15-.09.08-.15.12-.13.05-.22.05c-.08,0-.17-.01-.26-.04v-.03c.02-.06.04-.12.05-.17s.02-.1.02-.15c0-.09-.02-.17-.07-.23s-.1-.11-.17-.15-.14-.07-.22-.08-.16-.03-.24-.03c-.14,0-.26.02-.37.06s-.2.09-.28.15-.13.13-.17.21-.06.16-.06.24c0,.11.03.2.08.29s.13.16.23.23.2.14.32.2.25.12.38.19c.15.07.3.14.44.22s.28.16.39.26.21.21.28.33.11.27.11.44c0,.2-.04.38-.13.54s-.21.29-.36.4-.32.19-.51.24-.39.08-.6.08c-.1,0-.21,0-.32-.02s-.22-.04-.32-.07-.2-.07-.29-.12-.17-.1-.24-.16-.12-.13-.16-.2-.06-.15-.06-.24c0-.08.02-.14.05-.19s.07-.1.13-.13.11-.06.18-.07.13-.03.2-.03l.02.02Z"/>
      <path d="M4.26,14.49c-.07.5-.14,1-.2,1.52s-.12,1.04-.17,1.55-.09,1.02-.12,1.52-.04.98-.04,1.44c0,.22,0,.41,0,.57s.01.29.02.4.03.2.04.26.04.11.07.15.06.06.1.07.08.02.13.02c.09,0,.19-.01.3-.04s.22-.07.33-.12l.06.15c-.07.06-.16.11-.27.17s-.22.11-.34.16-.23.09-.34.12-.21.05-.29.05c-.06,0-.11,0-.16-.02s-.08-.04-.12-.07-.06-.08-.08-.14-.04-.13-.05-.22c-.02-.12-.03-.25-.04-.41s-.02-.33-.02-.51c0-.2,0-.39.02-.6s.04-.4.07-.6h-.03c-.15.39-.31.75-.49,1.07s-.36.59-.55.82-.38.4-.57.52-.37.18-.54.18-.33-.04-.45-.13-.23-.21-.31-.35-.14-.31-.18-.5-.06-.38-.06-.58c0-.24.03-.48.08-.71s.13-.45.23-.66.22-.4.36-.58.29-.33.47-.46.36-.23.56-.3.41-.11.63-.11c.15,0,.31.02.46.06s.31.1.46.19c0-.33.02-.67.04-1.01s.03-.68.05-1,.04-.63.06-.92.05-.55.08-.77c0-.05.02-.09.05-.12s.06-.06.1-.08.08-.04.13-.05.1-.01.15-.01c.12,0,.24.03.37.09ZM3.21,18.62c-.26-.12-.53-.19-.79-.19-.19,0-.36.03-.52.09s-.3.14-.43.25-.24.23-.33.38-.17.3-.24.46-.11.34-.14.51-.05.35-.05.53c0,.06,0,.13,0,.22s.02.17.03.25.04.17.07.25.06.16.1.22.09.12.15.16.13.06.2.06c.14,0,.28-.05.43-.16s.29-.25.43-.42.27-.37.4-.6.23-.46.33-.69.18-.47.24-.7.1-.44.11-.63Z"/>
      <path d="M8.05,21.45s.03.01.05.02.04.02.05.04.03.03.04.04.02.03.02.04c0,0,0,.02,0,.02-.11.15-.23.28-.35.4s-.26.21-.39.28-.27.13-.41.17-.28.05-.42.05c-.23,0-.45-.05-.64-.14s-.36-.23-.5-.39-.25-.36-.33-.58-.12-.46-.12-.72c0-.21.02-.42.07-.63s.11-.41.2-.6.19-.37.32-.53.27-.3.43-.42.33-.21.52-.28.4-.1.61-.1c.14,0,.28.02.41.06s.25.1.34.17.18.16.24.27.09.23.09.37c0,.2-.06.37-.19.52s-.31.27-.54.38-.5.19-.81.25-.64.11-1,.14v.05c0,.25.03.48.1.69s.15.38.26.53.24.26.39.34.31.12.49.12.36-.04.54-.13.37-.23.56-.42ZM7.5,19.1c0-.09-.02-.17-.05-.25s-.07-.15-.13-.2-.12-.1-.19-.14-.15-.05-.24-.05c-.13,0-.24.02-.35.07s-.2.11-.28.18-.15.17-.22.27-.12.21-.16.33-.08.23-.11.35-.05.24-.06.35c.28-.02.53-.05.75-.1s.41-.11.56-.18.27-.17.35-.27.12-.22.12-.36Z"/>
      <path d="M10.41,18.45c.22-.07.41-.12.56-.16s.28-.07.39-.1.19-.04.25-.05.1-.01.13-.01c.05,0,.09,0,.14.02s.08.04.11.07.06.08.07.14.03.13.03.22c0,.03,0,.09,0,.17s0,.2-.02.36-.02.34-.03.56-.03.48-.05.77h.04c.15-.38.32-.71.49-1s.36-.54.54-.74.36-.35.55-.45.35-.15.52-.15c.13,0,.25.02.35.07s.19.12.27.2.14.18.19.29.09.22.12.34.05.24.07.36.02.23.02.34c0,.29-.03.56-.09.81s-.14.48-.24.69-.22.39-.36.56-.29.3-.45.41-.33.2-.51.26-.35.09-.53.09c-.19,0-.37-.03-.55-.1s-.35-.18-.51-.34c-.02.49-.04,1-.06,1.52s-.03,1.07-.04,1.64l-.62.07h-.06c.03-.37.06-.75.08-1.15s.05-.8.07-1.21.04-.8.06-1.19.03-.76.04-1.1.02-.66.03-.94.01-.51.01-.7c0-.07,0-.14-.01-.19s-.02-.1-.05-.14-.06-.06-.1-.08-.1-.03-.17-.03-.16,0-.26.02-.23.04-.38.08l-.04-.22ZM11.93,21.75c.17.14.33.24.5.31s.33.1.5.1c.22,0,.42-.05.6-.14s.34-.23.48-.41.24-.41.31-.68.11-.58.11-.94c0-.13-.01-.27-.03-.41s-.05-.27-.1-.38-.1-.21-.17-.28-.16-.11-.26-.11c-.12,0-.24.03-.35.09s-.23.14-.34.25-.22.23-.32.37-.2.29-.29.45-.17.32-.25.49-.14.33-.19.49-.1.31-.13.45-.06.26-.07.37Z"/>
      <path d="M17.27,14.49c-.04.33-.08.67-.12,1.02s-.07.7-.11,1.06-.07.71-.1,1.07-.05.71-.08,1.06-.04.69-.05,1.03-.02.66-.02.97c0,.19,0,.36,0,.5s.01.26.02.35.03.17.04.23.04.1.07.13.06.05.1.06.08.02.13.02c.09,0,.19-.01.3-.04s.22-.07.33-.12l.06.15c-.07.06-.16.11-.27.17s-.22.11-.34.16-.23.09-.34.12-.21.05-.29.05c-.11,0-.19-.03-.25-.08s-.11-.14-.14-.26-.05-.28-.06-.47-.01-.43-.01-.71c0-.1,0-.25,0-.44s.01-.41.02-.66.02-.52.04-.82.03-.6.04-.92.03-.64.05-.96.04-.64.05-.94.03-.59.05-.85.03-.5.04-.71c0-.05.02-.09.04-.12s.06-.06.1-.08.08-.04.13-.05.1-.01.15-.01c.12,0,.24.03.37.09Z"/>
      <path d="M20.61,19.35c0-.15-.03-.29-.08-.4s-.12-.21-.2-.28-.17-.13-.28-.16-.21-.05-.31-.05c-.14,0-.26.01-.35.04s-.17.07-.23.12-.1.11-.13.18-.04.14-.04.22c0,.09.02.19.05.28s.08.19.15.28v.03c-.12.05-.24.08-.35.08-.07,0-.13-.01-.19-.03s-.11-.05-.15-.09-.08-.09-.1-.14-.04-.12-.04-.19c0-.12.03-.22.08-.33s.13-.19.22-.28.2-.16.32-.23.25-.12.38-.17.26-.08.39-.11.25-.04.36-.04c.21,0,.38.03.53.08s.26.13.35.24.16.23.2.38.06.32.06.5c0,.13,0,.27-.02.42s-.02.32-.04.48-.03.34-.04.52-.02.36-.02.54c0,.28.05.49.16.63s.24.21.41.21c.15,0,.32-.06.5-.17l.08.13c-.13.13-.27.23-.43.3s-.32.1-.49.1c-.13,0-.24-.02-.35-.06s-.2-.11-.28-.19-.14-.19-.18-.32-.06-.28-.06-.45c0-.05,0-.1,0-.15s0-.1.02-.16h-.02c-.08.17-.18.33-.29.5s-.23.31-.36.44-.27.23-.42.31-.31.12-.47.12c-.13,0-.26-.02-.37-.07s-.21-.11-.29-.19-.14-.18-.18-.29-.07-.23-.07-.37c0-.17.03-.33.1-.47s.15-.27.26-.38.25-.21.4-.29.33-.15.51-.2.38-.09.58-.12.41-.04.63-.04c.01-.12.02-.24.03-.36s.01-.24.01-.38ZM18.81,21.36c0,.08,0,.15.02.22s.04.13.08.18.08.09.14.12.12.05.2.05c.09,0,.18-.02.27-.06s.19-.1.28-.17.18-.16.26-.26.16-.21.22-.33.12-.24.17-.38.07-.27.09-.41c-.14,0-.29.01-.43.03s-.28.04-.41.07-.25.07-.36.12-.2.11-.28.19-.14.16-.19.27-.07.22-.07.36Z"/>
      <path d="M23,18.99c0-.08,0-.15-.02-.2s-.03-.1-.05-.13-.06-.06-.09-.07-.08-.02-.13-.02c-.07,0-.15,0-.25.03s-.21.05-.33.08l-.04-.21c.14-.05.27-.09.4-.13s.25-.07.35-.1.2-.05.28-.07.15-.02.19-.02c.11,0,.2.03.27.1s.1.18.1.35c0,.02,0,.06,0,.14s0,.16-.02.27-.02.23-.02.38-.02.29-.03.45-.03.33-.04.5-.03.34-.05.51h.02c.15-.5.31-.93.48-1.27s.34-.63.52-.84.35-.37.52-.47.34-.14.5-.14c.11,0,.21.02.32.06s.19.11.27.2.14.21.19.35.07.31.07.51c0,.06,0,.14-.01.24s-.02.21-.02.33-.02.25-.03.39-.02.27-.03.4-.02.26-.02.37-.01.22-.01.31c0,.15,0,.28.02.37s.03.17.06.23.07.09.12.11.11.03.18.03c.1,0,.21-.01.32-.04s.22-.07.33-.12l.06.15c-.07.06-.16.11-.27.17s-.22.11-.34.16-.24.09-.35.12-.22.05-.31.05c-.11,0-.19-.03-.25-.08s-.11-.13-.14-.23-.05-.21-.06-.34-.01-.27-.01-.42c0-.18,0-.37.02-.57s.03-.38.04-.56.03-.34.04-.48.02-.26.02-.34c0-.23-.04-.4-.13-.51s-.2-.16-.34-.16c-.11,0-.23.05-.36.14s-.25.23-.37.39-.24.36-.36.59-.22.47-.31.74-.17.54-.23.83-.1.58-.11.87l-.61.08h-.05c.02-.19.03-.39.04-.61s.03-.44.04-.67.02-.45.03-.67.02-.43.02-.62.01-.36.01-.52,0-.27,0-.36Z"/>
      <path d="M30.57,21.45s.03.01.05.02.04.02.05.04.03.03.04.04.02.03.02.04c0,0,0,.02,0,.02-.11.15-.23.28-.35.4s-.26.21-.39.28-.27.13-.41.17-.28.05-.42.05c-.23,0-.45-.05-.64-.14s-.36-.23-.5-.39-.25-.36-.33-.58-.12-.46-.12-.72c0-.21.02-.42.07-.63s.11-.41.2-.6.19-.37.32-.53.27-.3.43-.42.33-.21.52-.28.4-.1.61-.1c.14,0,.28.02.41.06s.25.1.34.17.18.16.24.27.09.23.09.37c0,.2-.06.37-.19.52s-.31.27-.54.38-.5.19-.81.25-.64.11-1,.14v.05c0,.25.03.48.1.69s.15.38.26.53.24.26.39.34.31.12.49.12.36-.04.54-.13.37-.23.56-.42ZM30.02,19.1c0-.09-.02-.17-.05-.25s-.07-.15-.13-.2-.12-.1-.19-.14-.15-.05-.24-.05c-.13,0-.24.02-.35.07s-.2.11-.28.18-.15.17-.22.27-.12.21-.16.33-.08.23-.11.35-.05.24-.06.35c.28-.02.53-.05.75-.1s.41-.11.56-.18.27-.17.35-.27.12-.22.12-.36ZM29.8,17.82c-.1-.1-.19-.2-.29-.32s-.2-.23-.3-.35-.19-.24-.27-.35-.16-.22-.22-.33-.11-.19-.15-.27-.06-.14-.06-.19c0-.04,0-.08.02-.13s.03-.09.06-.14.05-.1.09-.14.07-.09.11-.12l.13.03c.11.34.25.69.42,1.06s.38.74.63,1.11l-.16.13Z"/>
      <path d="M32.81,16.02c-.08.37-.15.75-.21,1.15s-.1.79-.14,1.17c.09,0,.18,0,.27,0s.17,0,.24,0,.14,0,.21,0h.15c.18,0,.32-.01.44-.03,0,.03.02.06.02.09s0,.05,0,.08c0,.09-.04.14-.11.17s-.17.04-.31.04-.27,0-.43-.02-.33-.03-.52-.04c-.02.21-.04.41-.05.61s-.03.39-.04.56-.02.34-.02.49,0,.28,0,.39c0,.21.01.4.03.56s.06.3.11.42.13.2.23.26.22.09.36.09c.11,0,.22-.02.35-.06s.28-.1.44-.18c.05.05.08.12.09.19-.12.08-.24.15-.37.22s-.24.12-.36.17-.23.08-.35.11-.22.04-.32.04c-.13,0-.25-.02-.36-.07s-.2-.13-.28-.25-.14-.29-.18-.49-.07-.47-.07-.79c0-.18,0-.36,0-.55s.01-.38.02-.57.02-.39.04-.58.03-.38.05-.57c-.15,0-.3,0-.43.02s-.24.03-.34.05c0-.01,0-.03,0-.04,0-.04.02-.08.06-.12s.1-.07.17-.1.16-.05.26-.07.21-.03.33-.04c.04-.41.09-.79.14-1.16s.1-.69.15-.97c0-.05.03-.09.05-.13s.06-.06.09-.08.07-.03.11-.04.08-.01.12-.01c.06,0,.12,0,.17.02s.1.03.15.06Z"/>
      <path d="M37.12,21.45s.03.01.05.02.04.02.05.04.03.03.04.04.02.03.02.04c0,0,0,.02,0,.02-.11.15-.23.28-.35.4s-.26.21-.39.28-.27.13-.41.17-.28.05-.42.05c-.23,0-.45-.05-.64-.14s-.36-.23-.5-.39-.25-.36-.33-.58-.12-.46-.12-.72c0-.21.02-.42.07-.63s.11-.41.2-.6.19-.37.32-.53.27-.3.43-.42.33-.21.52-.28.4-.1.61-.1c.14,0,.28.02.41.06s.25.1.34.17.18.16.24.27.09.23.09.37c0,.2-.06.37-.19.52s-.31.27-.54.38-.5.19-.81.25-.64.11-1,.14v.05c0,.25.03.48.1.69s.15.38.26.53.24.26.39.34.31.12.49.12.36-.04.54-.13.37-.23.56-.42ZM36.57,19.1c0-.09-.02-.17-.05-.25s-.07-.15-.13-.2-.12-.1-.19-.14-.15-.05-.24-.05c-.13,0-.24.02-.35.07s-.2.11-.28.18-.15.17-.22.27-.12.21-.16.33-.08.23-.11.35-.05.24-.06.35c.28-.02.53-.05.75-.1s.41-.11.56-.18.27-.17.35-.27.12-.22.12-.36Z"/>
      <path d="M40.67,16.54c0-.08,0-.15-.02-.21s-.04-.11-.07-.14-.08-.06-.14-.08-.14-.03-.23-.03c-.13,0-.29.01-.5.04l-.03-.26c.18-.03.37-.07.58-.1s.42-.07.65-.1.44-.05.67-.07.44-.03.65-.03c.17,0,.34,0,.5.03s.32.05.47.09.28.09.4.16.23.15.32.25.16.22.21.35.08.29.08.47c0,.25-.05.48-.14.67s-.21.37-.37.51-.33.27-.53.37-.41.18-.64.24v.03c.29.02.56.07.81.15s.46.18.64.33.32.31.43.52.15.45.15.74c0,.24-.03.45-.1.64s-.16.36-.27.51-.25.28-.41.38-.33.19-.51.26-.38.12-.58.15-.41.05-.62.05c-.17,0-.34,0-.49-.03s-.32-.04-.5-.07l-.57.07h-.05c.03-.26.05-.54.07-.84s.04-.61.05-.94.03-.66.04-1,.02-.69.03-1.04.01-.7.01-1.04,0-.68,0-1.01ZM41.21,21.99c.15.04.29.06.42.08s.27.02.4.02c.24,0,.47-.03.68-.09s.39-.15.55-.28.28-.29.37-.49.13-.44.13-.72c0-.26-.04-.49-.13-.68s-.22-.36-.39-.49-.38-.23-.63-.29-.54-.1-.86-.1c-.06,0-.13,0-.19,0s-.13,0-.2.01c0,.12,0,.26-.01.42s-.01.33-.02.51-.02.37-.02.56-.02.38-.03.57-.02.36-.03.53-.02.32-.03.45ZM41.43,15.94c0,.13,0,.28,0,.47s0,.39-.01.62-.01.48-.02.75-.01.55-.02.85c.17,0,.34-.02.51-.04s.33-.06.48-.11.29-.11.42-.19.24-.17.34-.29.17-.24.22-.39.08-.32.08-.51c0-.22-.04-.41-.11-.57s-.17-.28-.3-.37-.27-.16-.44-.2-.35-.06-.54-.06c-.09,0-.19,0-.29.01s-.2.02-.3.04Z"/>
      <path d="M45.89,22.48c-.07,0-.13-.01-.19-.04s-.1-.07-.14-.11-.07-.1-.09-.16-.03-.12-.03-.18c0-.09.02-.17.05-.24s.07-.13.12-.17.1-.08.16-.1.12-.04.17-.04c.07,0,.13.01.18.04s.1.06.14.1.07.09.09.15.03.12.03.18c0,.07-.01.14-.04.21s-.06.13-.1.18-.1.1-.16.13-.13.05-.2.05Z"/>
      <path d="M47.86,22.48c-.07,0-.13-.01-.19-.04s-.1-.07-.14-.11-.07-.1-.09-.16-.03-.12-.03-.18c0-.09.02-.17.05-.24s.07-.13.12-.17.1-.08.16-.1.12-.04.17-.04c.07,0,.13.01.18.04s.1.06.14.1.07.09.09.15.03.12.03.18c0,.07-.01.14-.04.21s-.06.13-.1.18-.1.1-.16.13-.13.05-.2.05Z"/>
      <path d="M49.83,22.48c-.07,0-.13-.01-.19-.04s-.1-.07-.14-.11-.07-.1-.09-.16-.03-.12-.03-.18c0-.09.02-.17.05-.24s.07-.13.12-.17.1-.08.16-.1.12-.04.17-.04c.07,0,.13.01.18.04s.1.06.14.1.07.09.09.15.03.12.03.18c0,.07-.01.14-.04.21s-.06.13-.1.18-.1.1-.16.13-.13.05-.2.05Z"/>
    </g>
  </g>
</svg>